<?xml version="1.0" standalone="no"?>
<!DOCTYPE svg PUBLIC "-//W3C//DTD SVG 20010904//EN"
 "http://www.w3.org/TR/2001/REC-SVG-20010904/DTD/svg10.dtd">
<svg version="1.0" xmlns="http://www.w3.org/2000/svg"
 width="488.000000pt" height="488.000000pt" viewBox="0 0 488.000000 488.000000"
 preserveAspectRatio="xMidYMid meet">
<metadata>
Created by potrace 1.14, written by Peter Selinger 2001-2017
</metadata>
<g transform="translate(0.000000,488.000000) scale(0.100000,-0.100000)"
fill="#000000" stroke="none">
<path d="M2326 4854 c-27 -9 -88 -37 -135 -64 -47 -26 -115 -58 -151 -70 -62
-21 -75 -22 -263 -15 -191 7 -199 7 -260 -16 -65 -24 -122 -75 -266 -238 -78
-88 -132 -121 -281 -167 -146 -46 -184 -65 -243 -123 -60 -57 -85 -104 -131
-251 -46 -149 -79 -203 -167 -281 -163 -144 -214 -201 -238 -266 -23 -61 -23
-69 -16 -260 7 -188 6 -201 -15 -263 -12 -36 -43 -104 -70 -151 -107 -191
-107 -307 0 -498 27 -47 58 -115 70 -151 21 -62 22 -75 15 -263 -7 -191 -7
-199 16 -260 24 -65 75 -122 238 -266 88 -78 121 -132 167 -281 46 -146 65
-184 123 -243 57 -60 104 -85 251 -131 149 -46 203 -79 281 -167 144 -163 201
-214 266 -238 61 -23 69 -23 260 -16 188 7 201 6 263 -15 36 -12 104 -43 151
-70 191 -107 307 -107 498 0 47 27 115 58 151 70 62 21 75 22 263 15 191 -7
199 -7 260 16 65 24 122 75 266 238 78 88 132 121 281 167 147 46 194 71 251
131 58 59 77 97 123 243 46 149 79 203 167 281 163 144 214 201 238 266 23 61
23 69 16 260 -7 188 -6 201 15 263 12 36 43 104 70 151 107 191 107 307 0 498
-27 47 -58 115 -70 151 -21 62 -22 75 -15 263 7 191 7 199 -16 260 -24 65 -75
122 -238 266 -88 78 -121 132 -167 281 -46 146 -65 184 -123 243 -57 60 -104
85 -251 131 -149 46 -203 79 -281 167 -144 163 -201 214 -266 238 -61 23 -69
23 -260 16 -188 -7 -201 -6 -263 15 -36 12 -104 43 -151 70 -47 26 -109 55
-139 64 -66 20 -159 20 -224 0z m1589 -823 c62 -28 130 -94 162 -160 36 -73
39 -190 6 -263 -30 -66 -95 -133 -162 -165 -47 -23 -69 -28 -136 -28 -67 0
-89 5 -136 28 -67 32 -132 99 -162 165 -29 65 -30 188 0 253 40 89 122 160
213 186 58 17 158 9 215 -16z m-680 -966 c39 -8 104 -31 145 -51 124 -61 247
-200 284 -321 l7 -23 -144 0 -144 0 -28 44 c-61 96 -159 141 -298 134 -182 -8
-303 -117 -344 -312 -34 -163 21 -342 134 -435 62 -51 135 -75 235 -75 79 0
93 3 155 34 50 26 77 48 107 88 l39 52 143 0 c79 0 144 -3 144 -6 0 -20 -66
-137 -104 -185 -54 -69 -163 -143 -259 -176 -99 -34 -272 -43 -381 -19 -221
50 -403 225 -462 446 -23 87 -23 263 -1 350 48 183 183 347 343 415 125 53
292 69 429 40z m-1402 -21 c240 -55 408 -219 458 -449 16 -77 16 -242 0 -320
-36 -169 -156 -320 -312 -394 -130 -62 -196 -71 -504 -71 l-265 0 0 625 0 625
276 0 c218 0 290 -3 347 -16z"/>
<path d="M1460 2436 l0 -416 103 0 c187 0 281 27 362 101 60 55 90 108 109
189 28 115 14 256 -33 348 -31 60 -98 121 -169 155 -64 30 -73 32 -219 35
l-153 4 0 -416z"/>
</g>
</svg>
